<mxfile>
  <diagram name="加密流程">
    <mxGraphModel>
      <root>
        <mxCell id="0"/>
        <mxCell id="1" parent="0"/>
        <!-- 开始 -->
        <mxCell id="2" value="开始" style="rounded=1;whiteSpace=wrap;html=1;" parent="1" vertex="1">
          <mxGeometry x="100" y="50" width="80" height="40"/>
        </mxCell>
        <!-- 输入密码 -->
        <mxCell id="3" value="输入仓库密码" style="rounded=1;whiteSpace=wrap;html=1;" parent="1" vertex="1">
          <mxGeometry x="100" y="120" width="80" height="40"/>
        </mxCell>
        <!-- 生成密钥 -->
        <mxCell id="4" value="生成密钥" style="rounded=1;whiteSpace=wrap;html=1;" parent="1" vertex="1">
          <mxGeometry x="100" y="190" width="80" height="40"/>
        </mxCell>
        <!-- 加密数据 -->
        <mxCell id="5" value="加密数据" style="rounded=1;whiteSpace=wrap;html=1;" parent="1" vertex="1">
          <mxGeometry x="100" y="260" width="80" height="40"/>
        </mxCell>
        <!-- 存储文件 -->
        <mxCell id="6" value="存储到文件" style="rounded=1;whiteSpace=wrap;html=1;" parent="1" vertex="1">
          <mxGeometry x="100" y="330" width="80" height="40"/>
        </mxCell>
        <!-- 连接线 -->
        <mxCell id="7" value="" style="endArrow=classic;html=1;" parent="1" source="2" target="3" edge="1">
          <mxGeometry relative="1" width="50" height="50"/>
        </mxCell>
        <mxCell id="8" value="" style="endArrow=classic;html=1;" parent="1" source="3" target="4" edge="1">
          <mxGeometry relative="1" width="50" height="50"/>
        </mxCell>
        <mxCell id="9" value="" style="endArrow=classic;html=1;" parent="1" source="4" target="5" edge="1">
          <mxGeometry relative="1" width="50" height="50"/>
        </mxCell>
        <mxCell id="10" value="" style="endArrow=classic;html=1;" parent="1" source="5" target="6" edge="1">
          <mxGeometry relative="1" width="50" height="50"/>
        </mxCell>
      </root>
    </mxGraphModel>
  </diagram>
</mxfile>